# WaveFront *.obj file (generated by Autodesk ATF)

mtllib Osprey_Bicoptere_central.mtl

g Corps1

v 5.000000 2.500000 0.000000
v 5.000000 -2.500000 0.000000
v -5.000000 -2.500000 0.000000
v -5.000000 2.500000 0.000000
v 5.000000 -2.500000 5.000000
v 5.000000 2.500000 5.000000
v -5.000000 2.500000 5.000000
v -5.000000 -2.500000 5.000000
vt -5.000000 -2.500000 0.000000
vt 5.000000 -2.500000 0.000000
vt -5.000000 2.500000 0.000000
vt 5.000000 2.500000 0.000000
vt 5.000000 2.500000 0.000000
vt -5.000000 2.500000 0.000000
vt 5.000000 -2.500000 0.000000
vt -5.000000 -2.500000 0.000000
vt 0.000000 0.000000 0.000000
vt 5.000000 0.000000 0.000000
vt 0.000000 5.000000 0.000000
vt 5.000000 5.000000 0.000000
vt 0.000000 0.000000 0.000000
vt 10.000000 0.000000 0.000000
vt 0.000000 5.000000 0.000000
vt 10.000000 5.000000 0.000000
vt 0.000000 0.000000 0.000000
vt 5.000000 0.000000 0.000000
vt 0.000000 5.000000 0.000000
vt 5.000000 5.000000 0.000000
vt 0.000000 0.000000 0.000000
vt 10.000000 0.000000 0.000000
vt 0.000000 5.000000 0.000000
vt 10.000000 5.000000 0.000000
vn -0.000000 -0.000000 -1.000000
vn -0.000000 -0.000000 -1.000000
vn -0.000000 -0.000000 -1.000000
vn -0.000000 -0.000000 -1.000000
vn 0.000000 0.000000 1.000000
vn 0.000000 0.000000 1.000000
vn 0.000000 0.000000 1.000000
vn 0.000000 0.000000 1.000000
vn 1.000000 0.000000 0.000000
vn 1.000000 0.000000 0.000000
vn 1.000000 0.000000 0.000000
vn 1.000000 0.000000 0.000000
vn 0.000000 1.000000 -0.000000
vn 0.000000 1.000000 -0.000000
vn 0.000000 1.000000 -0.000000
vn 0.000000 1.000000 -0.000000
vn -1.000000 0.000000 0.000000
vn -1.000000 0.000000 0.000000
vn -1.000000 0.000000 0.000000
vn -1.000000 0.000000 0.000000
vn 0.000000 -1.000000 0.000000
vn 0.000000 -1.000000 0.000000
vn 0.000000 -1.000000 0.000000
vn 0.000000 -1.000000 0.000000
usemtl Poudrage_(noir)
f 2/1/1 3/2/2 1/3/3
f 1/3/3 3/2/2 4/4/4
f 6/5/5 7/6/6 5/7/7
f 5/7/7 7/6/6 8/8/8
f 2/9/9 1/10/10 5/11/11
f 5/11/11 1/10/10 6/12/12
f 1/13/13 4/14/14 6/15/15
f 6/15/15 4/14/14 7/16/16
f 4/17/17 3/18/18 7/19/19
f 7/19/19 3/18/18 8/20/20
f 3/21/21 2/22/22 8/23/23
f 8/23/23 2/22/22 5/24/24
g Corps6

v -5.000000 2.500000 5.000000
v -5.000000 2.500000 0.000000
v 5.000000 2.500000 0.000000
v 5.000000 2.500000 5.000000
v -1.500000 3.500000 1.500000
v -1.500000 3.500000 3.500000
v 1.500000 3.500000 3.500000
v 1.500000 3.500000 1.500000
vt -2.500000 -5.000000 0.000000
vt 2.500000 -5.000000 0.000000
vt -2.500000 5.000000 0.000000
vt 2.500000 5.000000 0.000000
vt -1.000000 -1.500000 0.000000
vt 1.000000 -1.500000 0.000000
vt -1.000000 1.500000 0.000000
vt 1.000000 1.500000 0.000000
vt 2.000000 0.000000 0.000000
vt -0.000000 0.000000 0.000000
vt 3.500000 -3.640055 0.000000
vt -1.500000 -3.640055 0.000000
vt 3.000000 0.000000 0.000000
vt -0.000000 0.000000 0.000000
vt 6.500000 -1.802776 0.000000
vt -3.500000 -1.802776 0.000000
vt -2.000000 0.000000 0.000000
vt -0.000000 0.000000 0.000000
vt -3.500000 3.640055 0.000000
vt 1.500000 3.640055 0.000000
vt 3.000000 0.000000 0.000000
vt -0.000000 0.000000 0.000000
vt 6.500000 -1.802776 0.000000
vt -3.500000 -1.802776 0.000000
vn -0.000000 -1.000000 -0.000000
vn -0.000000 -1.000000 -0.000000
vn -0.000000 -1.000000 -0.000000
vn -0.000000 -1.000000 -0.000000
vn 0.000000 1.000000 0.000000
vn 0.000000 1.000000 0.000000
vn 0.000000 1.000000 0.000000
vn 0.000000 1.000000 0.000000
vn -0.274721 0.961524 -0.000000
vn -0.274721 0.961524 -0.000000
vn -0.274721 0.961524 -0.000000
vn -0.274721 0.961524 -0.000000
vn -0.000000 0.832050 0.554700
vn -0.000000 0.832050 0.554700
vn -0.000000 0.832050 0.554700
vn -0.000000 0.832050 0.554700
vn 0.274721 0.961524 -0.000000
vn 0.274721 0.961524 -0.000000
vn 0.274721 0.961524 -0.000000
vn 0.274721 0.961524 -0.000000
vn -0.000000 0.832050 -0.554700
vn -0.000000 0.832050 -0.554700
vn -0.000000 0.832050 -0.554700
vn -0.000000 0.832050 -0.554700
usemtl Poudrage_(rouge)
f 9/25/25 10/26/26 12/27/27
f 12/27/27 10/26/26 11/28/28
f 13/29/29 14/30/30 16/31/31
f 16/31/31 14/30/30 15/32/32
f 14/33/33 13/34/34 9/35/35
f 9/35/35 13/34/34 10/36/36
f 15/37/37 14/38/38 12/39/39
f 12/39/39 14/38/38 9/40/40
f 16/41/41 15/42/42 11/43/43
f 11/43/43 15/42/42 12/44/44
f 13/45/45 16/46/46 10/47/47
f 10/47/47 16/46/46 11/48/48
# 16 vertices
# 48 texture params
# 48 normals
# 24 facets

# 2 groups
